# Blender 3.3.1
# www.blender.org
mtllib jump.mtl
o bowlympus-jump
v -19.681339 0.000000 -79.632919
v -19.681339 0.000000 -56.906864
v -22.726053 0.000000 -68.269890
v -11.363027 0.000000 -48.588551
v -11.363027 0.000000 -87.951233
v 0.000000 0.000000 -68.269890
v 0.000000 0.000000 -90.995941
v 11.363027 0.000000 -48.588551
v 11.363027 0.000000 -87.951233
v 19.681339 0.000000 -56.906864
v 19.681339 0.000000 -79.632919
v 22.726053 0.000000 -68.269890
v -26.075575 0.000000 -0.379616
v 0.000000 0.000000 0.000000
v -26.294746 0.000000 -0.000000
v -17.383717 0.000000 -15.434357
v -0.000000 0.000000 -15.434357
v 17.383717 0.000000 -15.434357
v 26.075575 0.000000 -0.379616
v 26.294746 0.000000 0.000000
v -0.000000 0.000000 -60.543839
v -5.443239 0.000000 -36.115871
v -14.103493 0.000000 -36.115871
v -0.000000 0.000000 -45.543839
v 14.103493 0.000000 -36.115871
v 5.443239 0.000000 -36.115871
v -7.685778 0.000000 -32.231678
v -0.000000 0.000000 -21.115870
v -14.103493 0.000000 -21.115870
v 7.685778 0.000000 -32.231678
v 14.103493 0.000000 -21.115870
v -19.681339 10.000000 -56.906864
v -19.681339 10.000000 -79.632919
v -22.726053 10.000000 -68.269890
v -11.363027 10.000000 -48.588551
v -11.363027 10.000000 -87.951233
v 0.000000 10.000000 -68.269890
v 0.000000 10.000000 -90.995941
v 11.363027 10.000000 -48.588551
v 11.363027 10.000000 -87.951233
v 19.681339 10.000000 -56.906864
v 19.681339 10.000000 -79.632919
v 22.726053 10.000000 -68.269890
v -5.443239 10.000000 -36.115871
v -0.000000 10.000000 -60.543839
v -14.103493 10.000000 -36.115871
v -0.000000 10.000000 -45.543839
v 14.103493 10.000000 -36.115871
v 5.443239 10.000000 -36.115871
v -0.000000 10.000000 -21.115870
v -7.685778 10.000000 -32.231678
v -14.103493 10.000000 -21.115870
v 7.685778 10.000000 -32.231678
v 14.103493 10.000000 -21.115870
v 0.000000 10.000000 0.000000
v -26.075575 10.000000 -0.379616
v -26.294746 10.000000 -0.000000
v -17.383717 10.000000 -15.434357
v -0.000000 10.000000 -15.434357
v 17.383717 10.000000 -15.434357
v 26.075575 10.000000 -0.379616
v 26.294746 10.000000 0.000000
vn -0.0000 -1.0000 -0.0000
vn -0.0000 1.0000 -0.0000
vn -0.8660 -0.0000 0.5000
vn 0.8660 -0.0000 0.5000
vn -0.7071 -0.0000 0.7071
vn -0.9659 -0.0000 0.2588
vn -0.9659 -0.0000 -0.2588
vn -0.7071 -0.0000 -0.7071
vn -0.2588 -0.0000 -0.9659
vn 0.2588 -0.0000 -0.9659
vn 0.7071 -0.0000 -0.7071
vn 0.9659 -0.0000 -0.2588
vn 0.9659 -0.0000 0.2588
vn 0.7071 -0.0000 0.7071
vn -0.0000 -0.0000 1.0000
vn -0.8660 -0.0000 -0.5000
vn 0.8660 -0.0000 -0.5000
vn -0.0000 -0.0000 -1.0000
vt 0.316282 0.752739
vt 0.316282 0.548676
vt 0.288943 0.650707
vt 0.390974 0.473984
vt 0.390974 0.827431
vt 0.493005 0.650707
vt 0.493005 0.854770
vt 0.595037 0.473984
vt 0.595037 0.827431
vt 0.669729 0.548676
vt 0.669729 0.752739
vt 0.697068 0.650707
vt 0.258867 0.041105
vt 0.493005 0.037696
vt 0.256899 0.037696
vt 0.336913 0.176285
vt 0.493005 0.176285
vt 0.649098 0.176285
vt 0.727144 0.041105
vt 0.729112 0.037696
vt 0.493005 0.581333
vt 0.444129 0.361989
vt 0.366367 0.361989
vt 0.493005 0.446645
vt 0.619644 0.361989
vt 0.541882 0.361989
vt 0.423993 0.327112
vt 0.493005 0.227300
vt 0.366367 0.227300
vt 0.562018 0.327112
vt 0.619644 0.227300
vt 0.316282 0.548676
vt 0.316282 0.752739
vt 0.288943 0.650707
vt 0.390974 0.473984
vt 0.390974 0.827431
vt 0.493005 0.650707
vt 0.493005 0.854770
vt 0.595037 0.473984
vt 0.595037 0.827431
vt 0.669729 0.548676
vt 0.669729 0.752739
vt 0.697068 0.650707
vt 0.444129 0.361989
vt 0.493005 0.581333
vt 0.366367 0.361989
vt 0.493005 0.446645
vt 0.619644 0.361989
vt 0.541882 0.361989
vt 0.493005 0.227300
vt 0.423993 0.327112
vt 0.366367 0.227300
vt 0.562018 0.327112
vt 0.619644 0.227300
vt 0.493005 0.037696
vt 0.258867 0.041105
vt 0.256899 0.037696
vt 0.336913 0.176285
vt 0.493005 0.176285
vt 0.649098 0.176285
vt 0.727144 0.041105
vt 0.729112 0.037696
s 0
f 1/1/1 2/2/1 3/3/1
f 2/2/1 1/1/1 4/4/1
f 4/4/1 1/1/1 5/5/1
f 4/4/1 5/5/1 6/6/1
f 6/6/1 5/5/1 7/7/1
f 6/6/1 7/7/1 8/8/1
f 8/8/1 7/7/1 9/9/1
f 8/8/1 9/9/1 10/10/1
f 10/10/1 9/9/1 11/11/1
f 10/10/1 11/11/1 12/12/1
f 13/13/1 14/14/1 15/15/1
f 14/14/1 13/13/1 16/16/1
f 14/14/1 16/16/1 17/17/1
f 14/14/1 17/17/1 18/18/1
f 14/14/1 18/18/1 19/19/1
f 14/14/1 19/19/1 20/20/1
f 21/21/1 22/22/1 23/23/1
f 22/22/1 21/21/1 24/24/1
f 24/24/1 21/21/1 25/25/1
f 24/24/1 25/25/1 26/26/1
f 27/27/1 28/28/1 29/29/1
f 28/28/1 27/27/1 30/30/1
f 28/28/1 30/30/1 31/31/1
f 32/32/2 33/33/2 34/34/2
f 33/33/2 32/32/2 35/35/2
f 33/33/2 35/35/2 36/36/2
f 36/36/2 35/35/2 37/37/2
f 36/36/2 37/37/2 38/38/2
f 38/38/2 37/37/2 39/39/2
f 38/38/2 39/39/2 40/40/2
f 40/40/2 39/39/2 41/41/2
f 40/40/2 41/41/2 42/42/2
f 42/42/2 41/41/2 43/43/2
f 37/37/3 8/8/3 39/39/3
f 8/8/3 37/37/3 6/6/3
f 6/6/4 35/35/4 4/4/4
f 35/35/4 6/6/4 37/37/4
f 32/32/5 4/4/5 35/35/5
f 4/4/5 32/32/5 2/2/5
f 34/34/6 2/2/6 32/32/6
f 2/2/6 34/34/6 3/3/6
f 33/33/7 3/3/7 34/34/7
f 3/3/7 33/33/7 1/1/7
f 33/33/8 5/5/8 1/1/8
f 5/5/8 33/33/8 36/36/8
f 36/36/9 7/7/9 5/5/9
f 7/7/9 36/36/9 38/38/9
f 38/38/10 9/9/10 7/7/10
f 9/9/10 38/38/10 40/40/10
f 40/40/11 11/11/11 9/9/11
f 11/11/11 40/40/11 42/42/11
f 11/11/12 43/43/12 12/12/12
f 43/43/12 11/11/12 42/42/12
f 12/12/13 41/41/13 10/10/13
f 41/41/13 12/12/13 43/43/13
f 41/41/14 8/8/14 10/10/14
f 8/8/14 41/41/14 39/39/14
f 44/44/2 45/45/2 46/46/2
f 45/45/2 44/44/2 47/47/2
f 45/45/2 47/47/2 48/48/2
f 48/48/2 47/47/2 49/49/2
f 47/47/3 26/26/3 49/49/3
f 26/26/3 47/47/3 24/24/3
f 24/24/4 44/44/4 22/22/4
f 44/44/4 24/24/4 47/47/4
f 44/44/15 23/23/15 22/22/15
f 23/23/15 44/44/15 46/46/15
f 45/45/16 23/23/16 46/46/16
f 23/23/16 45/45/16 21/21/16
f 21/21/17 48/48/17 25/25/17
f 48/48/17 21/21/17 45/45/17
f 48/48/15 26/26/15 25/25/15
f 26/26/15 48/48/15 49/49/15
f 50/50/2 51/51/2 52/52/2
f 51/51/2 50/50/2 53/53/2
f 53/53/2 50/50/2 54/54/2
f 51/51/18 30/30/18 27/27/18
f 30/30/18 51/51/18 53/53/18
f 30/30/17 54/54/17 31/31/17
f 54/54/17 30/30/17 53/53/17
f 54/54/15 28/28/15 31/31/15
f 28/28/15 54/54/15 29/29/15
f 29/29/15 54/54/15 52/52/15
f 52/52/2 54/54/2 50/50/2
f 51/51/16 29/29/16 52/52/16
f 29/29/16 51/51/16 27/27/16
f 55/55/2 56/56/2 57/57/2
f 56/56/2 55/55/2 58/58/2
f 58/58/2 55/55/2 59/59/2
f 59/59/2 55/55/2 60/60/2
f 60/60/2 55/55/2 61/61/2
f 61/61/2 55/55/2 62/62/2
f 58/58/18 17/17/18 16/16/18
f 17/17/18 58/58/18 59/59/18
f 59/59/18 18/18/18 17/17/18
f 18/18/18 59/59/18 60/60/18
f 18/18/17 61/61/17 19/19/17
f 61/61/17 18/18/17 60/60/17
f 19/19/17 62/62/17 20/20/17
f 62/62/17 19/19/17 61/61/17
f 62/62/15 14/14/15 20/20/15
f 14/14/15 62/62/15 15/15/15
f 15/15/15 62/62/15 57/57/15
f 57/57/2 62/62/2 55/55/2
f 56/56/16 15/15/16 57/57/16
f 15/15/16 56/56/16 13/13/16
f 58/58/16 13/13/16 56/56/16
f 13/13/16 58/58/16 16/16/16
