# Blender 3.3.1
# www.blender.org
mtllib wedge.mtl
o Plane.001
v 15.000000 9.999997 15.000002
v -15.000000 10.000003 -14.999998
v 15.000000 10.000003 -14.999998
v 15.000000 -0.000002 15.000000
v -15.000000 0.000002 -15.000001
v 15.000000 0.000002 -15.000001
vn 1.0000 -0.0000 -0.0000
vn -0.7071 -0.0000 0.7071
vn -0.0000 -0.0000 -1.0000
vn -0.0000 1.0000 -0.0000
vt 0.000000 0.333300
vt 1.000000 0.333333
vt 1.000000 0.000000
vt 0.000000 0.333333
vt 1.000000 0.333332
vt 0.000000 1.000000
vt 1.000000 0.333300
vt 0.000000 0.333332
vt 1.000000 1.000000
vt 0.000000 0.000000
vt 1.000000 0.000000
vt 0.000000 0.000001
vt 1.000000 0.000000
vt 1.000000 0.000000
vt 0.000000 0.000000
s 0
f 3/7/1 1/1/1 4/10/1 6/14/1
f 4/11/2 1/2/2 2/4/2 5/12/2
f 2/5/3 3/8/3 6/15/3 5/13/3
f 1/3/4 3/9/4 2/6/4
