# Blender 3.3.1
# www.blender.org
mtllib bowling-pin.mtl
o Cylinder
v -0.003008 5.663003 0.004210
v -0.542741 -0.011882 -0.540988
v -0.800906 1.788621 -0.799072
v -0.705213 2.308930 -0.703409
v -0.434399 3.083780 -0.432680
v -0.352656 3.562853 -0.350963
v -0.825964 1.262175 -0.824122
v -0.311223 5.628315 -0.309543
v -0.454227 5.348032 -0.452503
v -0.474909 4.621619 -0.473177
v -0.642069 0.153443 -0.640285
v -0.715614 0.390242 -0.713807
v -0.378938 5.555318 -0.377237
v -0.365006 4.139919 -0.363309
v -0.507034 5.024174 -0.505293
v -0.807980 0.810304 -0.806144
v -0.345514 5.602704 -0.343823
v 0.000645 -0.011882 -0.762726
v 0.000529 1.788621 -1.127769
v 0.000572 2.308930 -0.992461
v 0.000693 3.083780 -0.609531
v 0.000729 3.562853 -0.493948
v 0.000518 1.262175 -1.163201
v 0.000748 5.628315 -0.435362
v 0.000684 5.348032 -0.637569
v 0.000675 4.621619 -0.666812
v 0.000600 0.153443 -0.903175
v 0.000567 0.390242 -1.007167
v 0.000718 5.555318 -0.531111
v 0.000724 4.139919 -0.511411
v 0.000661 5.024174 -0.712238
v 0.000526 0.810304 -1.137772
v 0.000733 5.602704 -0.483849
v 0.541704 -0.011882 -0.535372
v 0.799707 1.788621 -0.793619
v 0.704074 2.308930 -0.697896
v 0.433431 3.083780 -0.426996
v 0.351740 3.562853 -0.345228
v 0.824749 1.262175 -0.818685
v 0.310333 5.628315 -0.303781
v 0.453247 5.348032 -0.446831
v 0.473915 4.621619 -0.467519
v 0.640970 0.153443 -0.634732
v 0.714469 0.390242 -0.708300
v 0.378005 5.555318 -0.371518
v 0.364082 4.139919 -0.357582
v 0.506021 5.024174 -0.499655
v 0.806776 0.810304 -0.800696
v 0.344602 5.602704 -0.338083
v 0.763614 -0.011882 0.007943
v 1.128657 1.788621 0.007712
v 0.993349 2.308930 0.007798
v 0.610419 3.083780 0.008040
v 0.494836 3.562853 0.008113
v 1.164089 1.262175 0.007690
v 0.436250 5.628315 0.008150
v 0.638457 5.348032 0.008022
v 0.667700 4.621619 0.008003
v 0.904063 0.153443 0.007854
v 1.008055 0.390242 0.007788
v 0.531999 5.555318 0.008089
v 0.512299 4.139919 0.008102
v 0.713126 5.024174 0.007975
v 1.138660 0.810304 0.007706
v 0.484737 5.602704 0.008119
v 0.536431 -0.011882 0.549074
v 0.794760 1.788621 0.806995
v 0.699006 2.308930 0.711393
v 0.428021 3.083780 0.440835
v 0.346227 3.562853 0.359170
v 0.819833 1.262175 0.832029
v 0.304767 5.628315 0.317776
v 0.447862 5.348032 0.460645
v 0.468556 4.621619 0.481307
v 0.635822 0.153443 0.648309
v 0.709414 0.390242 0.721784
v 0.372525 5.555318 0.385427
v 0.358584 4.139919 0.371508
v 0.500702 5.024174 0.513402
v 0.801838 0.810304 0.814063
v 0.339080 5.602704 0.352034
v -0.006814 -0.011882 0.771155
v -0.006468 1.788621 1.136199
v -0.006596 2.308930 1.000890
v -0.006959 3.083780 0.617961
v -0.007069 3.562853 0.502378
v -0.006435 1.262175 1.171630
v -0.007124 5.628315 0.443792
v -0.006933 5.348032 0.645999
v -0.006905 4.621619 0.675242
v -0.006681 0.153443 0.911605
v -0.006582 0.390242 1.015597
v -0.007033 5.555318 0.539540
v -0.007052 4.139919 0.519841
v -0.006862 5.024174 0.720667
v -0.006459 0.810304 1.146202
v -0.007078 5.602704 0.492279
v -0.548017 -0.011882 0.544144
v -0.805857 1.788621 0.802554
v -0.710285 2.308930 0.706770
v -0.439812 3.083780 0.435699
v -0.358173 3.562853 0.353879
v -0.830883 1.262175 0.827635
v -0.316792 5.628315 0.312407
v -0.459616 5.348032 0.455547
v -0.480271 4.621619 0.476247
v -0.647220 0.153443 0.643566
v -0.720672 0.390242 0.717181
v -0.384422 5.555318 0.380186
v -0.370507 4.139919 0.366241
v -0.512356 5.024174 0.508404
v -0.812922 0.810304 0.809634
v -0.351039 5.602704 0.346730
v -0.770267 -0.011882 0.000484
v -1.135311 1.788621 0.000715
v -1.000002 2.308930 0.000629
v -0.617073 3.083780 0.000388
v -0.501490 3.562853 0.000315
v -1.170742 1.262175 0.000737
v -0.442904 5.628315 0.000278
v -0.645111 5.348032 0.000405
v -0.674354 4.621619 0.000424
v -0.910717 0.153443 0.000573
v -1.014709 0.390242 0.000639
v -0.538652 5.555318 0.000338
v -0.518952 4.139919 0.000326
v -0.719779 5.024174 0.000452
v -1.145314 0.810304 0.000721
v -0.491391 5.602704 0.000308
vn -0.9214 -0.0519 -0.3852
vn -0.9167 -0.1037 -0.3858
vn -0.7254 -0.6174 -0.3044
vn -0.4569 0.8681 -0.1939
vn -0.8547 -0.3759 -0.3580
vn -0.8970 0.2336 -0.3753
vn -0.8867 -0.2761 -0.3709
vn -0.8387 0.4153 -0.3522
vn -0.0783 0.9964 -0.0333
vn -0.8990 0.2175 -0.3800
vn -0.6772 0.6776 -0.2868
vn -0.9208 0.0621 -0.3850
vn -0.8829 -0.2856 -0.3727
vn -0.8323 0.4286 -0.3514
vn -0.9014 0.2083 -0.3795
vn -0.9205 -0.0279 -0.3898
vn -0.3400 0.4287 -0.8371
vn -0.3689 0.2083 -0.9058
vn -0.3751 -0.0279 -0.9266
vn -0.3790 -0.0519 -0.9239
vn -0.3753 -0.1037 -0.9211
vn -0.2975 -0.6174 -0.7282
vn -0.1859 0.8681 -0.4602
vn -0.3510 -0.3760 -0.8576
vn -0.3687 0.2336 -0.8997
vn -0.3645 -0.2761 -0.8893
vn -0.3439 0.4153 -0.8421
vn -0.0318 0.9964 -0.0789
vn -0.3669 0.2176 -0.9045
vn -0.2760 0.6776 -0.6816
vn -0.3788 0.0621 -0.9234
vn -0.3607 -0.2856 -0.8879
vn 0.3709 -0.2761 -0.8867
vn 0.3522 0.4153 -0.8387
vn 0.0333 0.9964 -0.0783
vn 0.3800 0.2176 -0.8990
vn 0.2867 0.6776 -0.6772
vn 0.3850 0.0621 -0.9208
vn 0.3727 -0.2856 -0.8829
vn 0.3514 0.4287 -0.8323
vn 0.3795 0.2083 -0.9014
vn 0.3898 -0.0279 -0.9205
vn 0.3852 -0.0519 -0.9214
vn 0.3858 -0.1037 -0.9167
vn 0.3044 -0.6174 -0.7254
vn 0.1939 0.8681 -0.4569
vn 0.3580 -0.3760 -0.8547
vn 0.3753 0.2336 -0.8970
vn 0.9057 0.2083 -0.3692
vn 0.9265 -0.0279 -0.3754
vn 0.9238 -0.0519 -0.3793
vn 0.9210 -0.1037 -0.3755
vn 0.7281 -0.6174 -0.2978
vn 0.4602 0.8681 -0.1860
vn 0.8575 -0.3760 -0.3513
vn 0.8996 0.2336 -0.3690
vn 0.8892 -0.2761 -0.3648
vn 0.8420 0.4153 -0.3442
vn 0.0790 0.9964 -0.0319
vn 0.9044 0.2176 -0.3672
vn 0.6816 0.6776 -0.2762
vn 0.9233 0.0621 -0.3791
vn 0.8878 -0.2856 -0.3609
vn 0.8370 0.4287 -0.3402
vn 0.0784 0.9964 0.0333
vn 0.8992 0.2176 0.3797
vn 0.6773 0.6776 0.2865
vn 0.9210 0.0621 0.3847
vn 0.8830 -0.2856 0.3724
vn 0.8324 0.4287 0.3511
vn 0.9015 0.2083 0.3792
vn 0.9206 -0.0279 0.3895
vn 0.9215 -0.0519 0.3849
vn 0.9168 -0.1037 0.3855
vn 0.7254 -0.6174 0.3042
vn 0.4570 0.8681 0.1938
vn 0.8548 -0.3760 0.3578
vn 0.8971 0.2336 0.3750
vn 0.8868 -0.2761 0.3707
vn 0.8388 0.4153 0.3519
vn 0.3796 -0.0519 0.9237
vn 0.3758 -0.1037 0.9209
vn 0.2980 -0.6174 0.7280
vn 0.1862 0.8681 0.4601
vn 0.3516 -0.3760 0.8573
vn 0.3693 0.2336 0.8995
vn 0.3651 -0.2761 0.8891
vn 0.3444 0.4153 0.8419
vn 0.0319 0.9964 0.0789
vn 0.3675 0.2176 0.9042
vn 0.2764 0.6776 0.6815
vn 0.3794 0.0621 0.9232
vn 0.3612 -0.2856 0.8877
vn 0.3405 0.4287 0.8368
vn 0.3695 0.2083 0.9056
vn 0.3756 -0.0279 0.9263
vn -0.3794 0.2176 0.8993
vn -0.2863 0.6776 0.6774
vn -0.3844 0.0621 0.9211
vn -0.3721 -0.2856 0.8831
vn -0.3509 0.4287 0.8325
vn -0.3790 0.2083 0.9017
vn -0.3893 -0.0279 0.9207
vn -0.3846 -0.0519 0.9216
vn -0.3853 -0.1037 0.9170
vn -0.3039 -0.6174 0.7255
vn -0.1936 0.8681 0.4570
vn -0.3575 -0.3760 0.8549
vn -0.3747 0.2336 0.8972
vn -0.3704 -0.2761 0.8869
vn -0.3516 0.4153 0.8389
vn -0.0332 0.9964 0.0783
vn -0.9209 -0.1037 0.3758
vn -0.7280 -0.6174 0.2980
vn -0.4602 0.8681 0.1862
vn -0.8574 -0.3759 0.3516
vn -0.8995 0.2336 0.3693
vn -0.8891 -0.2761 0.3651
vn -0.8420 0.4153 0.3445
vn -0.0789 0.9964 0.0319
vn -0.9042 0.2175 0.3675
vn -0.6815 0.6776 0.2764
vn -0.9232 0.0621 0.3794
vn -0.8877 -0.2856 0.3612
vn -0.8369 0.4286 0.3405
vn -0.9056 0.2083 0.3695
vn -0.9263 -0.0279 0.3756
vn -0.9237 -0.0519 0.3796
vn -0.0000 -1.0000 -0.0000
vt 0.216840 0.996869
vt 0.791433 0.996869
vt 0.122254 0.002364
vt 0.399607 0.544593
vt 0.077011 0.317896
vt 0.093781 0.409079
vt 0.141241 0.544869
vt 0.155566 0.628824
vt 0.072620 0.225638
vt 0.162827 0.990790
vt 0.137766 0.941671
vt 0.134141 0.814370
vt 0.104847 0.031336
vt 0.091959 0.072835
vt 0.150960 0.977998
vt 0.153402 0.729953
vt 0.128511 0.884916
vt 0.075772 0.146449
vt 0.156817 0.986302
vt 0.217481 0.002364
vt 0.507715 0.500478
vt 0.217460 0.317896
vt 0.217468 0.409079
vt 0.217489 0.544869
vt 0.217496 0.628824
vt 0.217458 0.225638
vt 0.217499 0.990790
vt 0.217488 0.941671
vt 0.217486 0.814370
vt 0.217473 0.031336
vt 0.217467 0.072835
vt 0.217493 0.977998
vt 0.217494 0.729953
vt 0.217483 0.884916
vt 0.217460 0.146449
vt 0.217496 0.986302
vt 0.312300 0.002364
vt 0.615361 0.545710
vt 0.357514 0.317896
vt 0.340755 0.409079
vt 0.293325 0.544869
vt 0.279009 0.628824
vt 0.361902 0.225638
vt 0.271752 0.990790
vt 0.296798 0.941671
vt 0.300420 0.814370
vt 0.329695 0.031336
vt 0.342576 0.072835
vt 0.283612 0.977998
vt 0.281172 0.729953
vt 0.306046 0.884916
vt 0.358753 0.146449
vt 0.277758 0.986302
vt 0.351189 0.002364
vt 0.925781 0.002364
vt 0.659510 0.653804
vt 0.415161 0.317896
vt 0.989754 0.317896
vt 0.391449 0.409079
vt 0.966042 0.409079
vt 0.324342 0.544869
vt 0.898934 0.544869
vt 0.304086 0.628824
vt 0.878679 0.628824
vt 0.421371 0.225638
vt 0.995963 0.225638
vt 0.293819 0.990790
vt 0.868412 0.990790
vt 0.329255 0.941671
vt 0.903848 0.941671
vt 0.334380 0.814370
vt 0.908973 0.814370
vt 0.375802 0.031336
vt 0.950395 0.031336
vt 0.394026 0.072835
vt 0.968619 0.072835
vt 0.310599 0.977998
vt 0.885192 0.977998
vt 0.307147 0.729953
vt 0.881739 0.729953
vt 0.342341 0.884916
vt 0.916933 0.884916
vt 0.416914 0.146449
vt 0.991507 0.146449
vt 0.302316 0.986302
vt 0.876909 0.986302
vt 0.885968 0.002364
vt 0.614311 0.761464
vt 0.931240 0.317896
vt 0.914459 0.409079
vt 0.866970 0.544869
vt 0.852636 0.628824
vt 0.935634 0.225638
vt 0.845370 0.990790
vt 0.870447 0.941671
vt 0.874074 0.814370
vt 0.903386 0.031336
vt 0.916283 0.072835
vt 0.857244 0.977998
vt 0.854801 0.729953
vt 0.879707 0.884916
vt 0.932480 0.146449
vt 0.851383 0.986302
vt 0.790766 0.002364
vt 0.506231 0.805648
vt 0.790827 0.317896
vt 0.790805 0.409079
vt 0.790741 0.544869
vt 0.790722 0.628824
vt 0.790833 0.225638
vt 0.790712 0.990790
vt 0.790746 0.941671
vt 0.790751 0.814370
vt 0.790790 0.031336
vt 0.790807 0.072835
vt 0.790728 0.977998
vt 0.790725 0.729953
vt 0.790758 0.884916
vt 0.790829 0.146449
vt 0.790720 0.986302
vt 0.695922 0.002364
vt 0.398557 0.760483
vt 0.650737 0.317896
vt 0.667485 0.409079
vt 0.714885 0.544869
vt 0.729192 0.628824
vt 0.646351 0.225638
vt 0.736444 0.990790
vt 0.711414 0.941671
vt 0.707795 0.814370
vt 0.678537 0.031336
vt 0.665665 0.072835
vt 0.724592 0.977998
vt 0.727030 0.729953
vt 0.702172 0.884916
vt 0.649499 0.146449
vt 0.730442 0.986302
vt 0.082381 0.002364
vt 0.656974 0.002364
vt 0.354340 0.652320
vt 0.018408 0.317896
vt 0.593001 0.317896
vt 0.042120 0.409079
vt 0.616713 0.409079
vt 0.109228 0.544869
vt 0.683820 0.544869
vt 0.129483 0.628824
vt 0.704076 0.628824
vt 0.012199 0.225638
vt 0.586792 0.225638
vt 0.139750 0.990790
vt 0.714343 0.990790
vt 0.104314 0.941671
vt 0.678907 0.941671
vt 0.099189 0.814370
vt 0.673782 0.814370
vt 0.057768 0.031336
vt 0.632360 0.031336
vt 0.039543 0.072835
vt 0.614136 0.072835
vt 0.122971 0.977998
vt 0.697563 0.977998
vt 0.126423 0.729953
vt 0.701016 0.729953
vt 0.091229 0.884916
vt 0.665822 0.884916
vt 0.016655 0.146449
vt 0.591248 0.146449
vt 0.131253 0.986302
vt 0.705846 0.986302
s 0
usemtl Material.001
f 119/149/1 7/9/1 16/18/1 128/167/1
f 127/165/2 15/17/2 10/12/2 122/155/2
f 123/157/3 11/13/3 2/3/3 114/138/3
f 120/151/4 8/10/4 17/19/4 129/169/4
f 124/159/5 12/14/5 11/13/5 123/157/5
f 116/143/6 4/6/6 3/5/6 115/141/6
f 128/167/7 16/18/7 12/14/7 124/159/7
f 117/145/8 5/7/8 4/6/8 116/143/8
f 120/151/9 1/1/9 8/10/9
f 118/147/10 6/8/10 5/7/10 117/145/10
f 129/169/11 17/19/11 13/15/11 125/161/11
f 115/141/12 3/5/12 7/9/12 119/149/12
f 122/155/13 10/12/13 14/16/13 126/163/13
f 125/161/14 13/15/14 9/11/14 121/153/14
f 121/153/15 9/11/15 15/17/15 127/165/15
f 126/163/16 14/16/16 6/8/16 118/147/16
f 13/15/17 29/32/17 25/28/17 9/11/17
f 9/11/18 25/28/18 31/34/18 15/17/18
f 14/16/19 30/33/19 22/25/19 6/8/19
f 7/9/20 23/26/20 32/35/20 16/18/20
f 15/17/21 31/34/21 26/29/21 10/12/21
f 11/13/22 27/30/22 18/20/22 2/3/22
f 8/10/23 24/27/23 33/36/23 17/19/23
f 12/14/24 28/31/24 27/30/24 11/13/24
f 4/6/25 20/23/25 19/22/25 3/5/25
f 16/18/26 32/35/26 28/31/26 12/14/26
f 5/7/27 21/24/27 20/23/27 4/6/27
f 8/10/28 1/1/28 24/27/28
f 6/8/29 22/25/29 21/24/29 5/7/29
f 17/19/30 33/36/30 29/32/30 13/15/30
f 3/5/31 19/22/31 23/26/31 7/9/31
f 10/12/32 26/29/32 30/33/32 14/16/32
f 32/35/33 48/52/33 44/48/33 28/31/33
f 21/24/34 37/41/34 36/40/34 20/23/34
f 24/27/35 1/1/35 40/44/35
f 22/25/36 38/42/36 37/41/36 21/24/36
f 33/36/37 49/53/37 45/49/37 29/32/37
f 19/22/38 35/39/38 39/43/38 23/26/38
f 26/29/39 42/46/39 46/50/39 30/33/39
f 29/32/40 45/49/40 41/45/40 25/28/40
f 25/28/41 41/45/41 47/51/41 31/34/41
f 30/33/42 46/50/42 38/42/42 22/25/42
f 23/26/43 39/43/43 48/52/43 32/35/43
f 31/34/44 47/51/44 42/46/44 26/29/44
f 27/30/45 43/47/45 34/37/45 18/20/45
f 24/27/46 40/44/46 49/53/46 33/36/46
f 28/31/47 44/48/47 43/47/47 27/30/47
f 20/23/48 36/40/48 35/39/48 19/22/48
f 41/45/49 57/69/49 63/81/49 47/51/49
f 46/50/50 62/79/50 54/63/50 38/42/50
f 39/43/51 55/65/51 64/83/51 48/52/51
f 47/51/52 63/81/52 58/71/52 42/46/52
f 43/47/53 59/73/53 50/54/53 34/37/53
f 40/44/54 56/67/54 65/85/54 49/53/54
f 44/48/55 60/75/55 59/73/55 43/47/55
f 36/40/56 52/59/56 51/57/56 35/39/56
f 48/52/57 64/83/57 60/75/57 44/48/57
f 37/41/58 53/61/58 52/59/58 36/40/58
f 40/44/59 1/1/59 56/67/59
f 38/42/60 54/63/60 53/61/60 37/41/60
f 49/53/61 65/85/61 61/77/61 45/49/61
f 35/39/62 51/57/62 55/65/62 39/43/62
f 42/46/63 58/71/63 62/79/63 46/50/63
f 45/49/64 61/77/64 57/69/64 41/45/64
f 56/68/65 1/2/65 72/94/65
f 54/64/66 70/92/66 69/91/66 53/62/66
f 65/86/67 81/103/67 77/99/67 61/78/67
f 51/58/68 67/89/68 71/93/68 55/66/68
f 58/72/69 74/96/69 78/100/69 62/80/69
f 61/78/70 77/99/70 73/95/70 57/70/70
f 57/70/71 73/95/71 79/101/71 63/82/71
f 62/80/72 78/100/72 70/92/72 54/64/72
f 55/66/73 71/93/73 80/102/73 64/84/73
f 63/82/74 79/101/74 74/96/74 58/72/74
f 59/74/75 75/97/75 66/87/75 50/55/75
f 56/68/76 72/94/76 81/103/76 65/86/76
f 60/76/77 76/98/77 75/97/77 59/74/77
f 52/60/78 68/90/78 67/89/78 51/58/78
f 64/84/79 80/102/79 76/98/79 60/76/79
f 53/62/80 69/91/80 68/90/80 52/60/80
f 71/93/81 87/110/81 96/119/81 80/102/81
f 79/101/82 95/118/82 90/113/82 74/96/82
f 75/97/83 91/114/83 82/104/83 66/87/83
f 72/94/84 88/111/84 97/120/84 81/103/84
f 76/98/85 92/115/85 91/114/85 75/97/85
f 68/90/86 84/107/86 83/106/86 67/89/86
f 80/102/87 96/119/87 92/115/87 76/98/87
f 69/91/88 85/108/88 84/107/88 68/90/88
f 72/94/89 1/2/89 88/111/89
f 70/92/90 86/109/90 85/108/90 69/91/90
f 81/103/91 97/120/91 93/116/91 77/99/91
f 67/89/92 83/106/92 87/110/92 71/93/92
f 74/96/93 90/113/93 94/117/93 78/100/93
f 77/99/94 93/116/94 89/112/94 73/95/94
f 73/95/95 89/112/95 95/118/95 79/101/95
f 78/100/96 94/117/96 86/109/96 70/92/96
f 86/109/97 102/126/97 101/125/97 85/108/97
f 97/120/98 113/137/98 109/133/98 93/116/98
f 83/106/99 99/123/99 103/127/99 87/110/99
f 90/113/100 106/130/100 110/134/100 94/117/100
f 93/116/101 109/133/101 105/129/101 89/112/101
f 89/112/102 105/129/102 111/135/102 95/118/102
f 94/117/103 110/134/103 102/126/103 86/109/103
f 87/110/104 103/127/104 112/136/104 96/119/104
f 95/118/105 111/135/105 106/130/105 90/113/105
f 91/114/106 107/131/106 98/121/106 82/104/106
f 88/111/107 104/128/107 113/137/107 97/120/107
f 92/115/108 108/132/108 107/131/108 91/114/108
f 84/107/109 100/124/109 99/123/109 83/106/109
f 96/119/110 112/136/110 108/132/110 92/115/110
f 85/108/111 101/125/111 100/124/111 84/107/111
f 88/111/112 1/2/112 104/128/112
f 111/135/113 127/166/113 122/156/113 106/130/113
f 107/131/114 123/158/114 114/139/114 98/121/114
f 104/128/115 120/152/115 129/170/115 113/137/115
f 108/132/116 124/160/116 123/158/116 107/131/116
f 100/124/117 116/144/117 115/142/117 99/123/117
f 112/136/118 128/168/118 124/160/118 108/132/118
f 101/125/119 117/146/119 116/144/119 100/124/119
f 104/128/120 1/2/120 120/152/120
f 102/126/121 118/148/121 117/146/121 101/125/121
f 113/137/122 129/170/122 125/162/122 109/133/122
f 99/123/123 115/142/123 119/150/123 103/127/123
f 106/130/124 122/156/124 126/164/124 110/134/124
f 109/133/125 125/162/125 121/154/125 105/129/125
f 105/129/126 121/154/126 127/166/126 111/135/126
f 110/134/127 126/164/127 118/148/127 102/126/127
f 103/127/128 119/150/128 128/168/128 112/136/128
f 2/4/129 18/21/129 114/140/129
f 114/140/129 34/38/129 50/56/129
f 98/122/129 114/140/129 50/56/129
f 98/122/129 50/56/129 66/88/129
f 82/105/129 98/122/129 66/88/129
f 114/140/129 18/21/129 34/38/129
